<?xml version="1.0" encoding="utf-8"?>
<!-- Generator: Adobe Illustrator 23.0.3, SVG Export Plug-In . SVG Version: 6.00 Build 0)  -->
<svg version="1.1" id="Layer_1" xmlns="http://www.w3.org/2000/svg" xmlns:xlink="http://www.w3.org/1999/xlink" x="0px" y="0px"
	 viewBox="0 0 216 216" style="enable-background:new 0 0 216 216;" xml:space="preserve">
<style type="text/css">
	.st0{fill:#FFFFFF;}
</style>
<path class="st0" d="M-1694.7-369.3l-56.5,0.6l-59.4-96.3l-25.2-46.4v53.9l0.1,0.1l-0.4,215.3l-2.5-3.2l-6.7-8.6l-73-93.2l63.1-0.3
	l-0.3-21.9h-96l-14,0.1l130.7,166.8l2.5,3.1l9.3,10.2l9.3-10.2l2.5-3.1l130.7-166.8L-1694.7-369.3z M-1800.9-253.9l-6.7,8.6
	l-2.5,3.2l-0.3-170.5l-1.1-1.7v-0.2l1.1,1.9l29.1,47.2l11.6,18.7l27.9-0.3l14-0.1L-1800.9-253.9z"/>
<text transform="matrix(1 0 0 1 -2447.6096 -29.0064)" class="st0" style="font-family:'Moon-Light'; font-size:146.7303px;">vivek </text>
<text transform="matrix(1 0 0 1 -2020.9097 -29.0064)" class="st0" style="font-family:'Moon-Bold'; font-size:146.7303px;">bhardwaj</text>
<path class="st0" d="M180.3,96.2l-32.6,0.3l-34.3-55.7L98.7,14v31.2v0.1l-0.2,124.5l-1.5-1.9l-3.9-5L51,109l36.5-0.2l-0.2-12.7H31.8
	l-8.1,0.1l75.5,96.4l1.4,1.8l5.4,5.9l5.4-5.9l1.4-1.8l75.5-96.4L180.3,96.2z M118.9,162.9l-3.9,5l-1.5,1.9l-0.2-98.6l-0.6-1v-0.1
	l0.6,1.1l16.8,27.3l6.7,10.8l16.1-0.2l8.1-0.1L118.9,162.9z"/>
<path d="M-3502.7-369.3l-56.5,0.6l-59.4-96.3l-25.2-46.4v53.9l0.1,0.1l-0.4,215.3l-2.5-3.2l-6.7-8.6l-73-93.2l63.1-0.3l-0.3-21.9
	h-96l-14,0.1l130.7,166.8l2.5,3.1l9.3,10.2l9.3-10.2l2.5-3.1l130.7-166.8L-3502.7-369.3z M-3608.9-253.9l-6.7,8.6l-2.5,3.2
	l-0.3-170.5l-1.1-1.7v-0.2l1.1,1.9l29.1,47.2l11.6,18.7l27.9-0.3l14-0.1L-3608.9-253.9z"/>
<text transform="matrix(1 0 0 1 -4255.6099 -29.0064)" style="font-family:'Moon-Light'; font-size:146.7303px;">vivek </text>
<text transform="matrix(1 0 0 1 -3828.9099 -29.0064)" style="font-family:'Moon-Bold'; font-size:146.7303px;">bhardwaj</text>
</svg>
